<svg width="515" height="121" viewBox="0 0 515 121" fill="none" xmlns="http://www.w3.org/2000/svg">
<path d="M25.3075 47.7675C25.3075 57.2303 28.9824 65.9808 35.2502 73.1458C29.4113 73.8422 22.9113 74.5426 22.9113 74.5426L19.8816 76.3289C15.2506 69.4669 12.6459 61.6724 12.6459 53.4176C12.6459 26.1311 41.1246 4.00278 76.2568 4.00278C76.7172 4.00278 77.1775 4.00278 77.6182 4.01852C48.6083 4.59691 25.3075 23.971 25.3075 47.7675Z" fill="#ECF2FA"/>
<path d="M118.298 15.783C118.298 15.783 118.16 15.9522 117.924 15.783C117.311 14.6931 117.531 12.5645 120.478 11.2542C116.937 13.7567 118.298 15.783 118.298 15.783ZM106.636 9.00757C105.955 11.3054 107.163 12.0884 107.163 12.0884C106.703 12.5487 105.275 10.7427 105.735 9.55055C106.16 8.40951 108.473 2.38168 108.765 1.63411C108.58 2.25184 107.269 6.87895 106.636 9.00757ZM99.7267 16.5817C97.5155 17.1247 95.316 16.6171 93.8524 16.0545L97.1378 7.9531C98.448 8.3623 102.941 9.82598 105.361 11.7815C103.933 14.4019 102.04 16.0387 99.7267 16.5817ZM91.2162 19.9379C90.4175 18.8835 88.6115 19.8002 88.7807 19.5445C89.6502 18.2342 91.1139 18.3011 91.1139 18.3011L96.5279 7.77998C96.2053 8.51181 91.6608 19.1707 91.2162 19.9379ZM82.741 34.5393L82.7253 34.4724L88.395 20.4612C88.5288 20.5281 88.6508 20.6147 88.7846 20.6658L82.741 34.5393ZM93.8878 2.81055L93.9389 4.36079C93.9389 4.36079 87.435 20.1071 86.7386 20.1229L93.8878 2.81055ZM120.934 10.5736C118.585 9.50334 114.332 7.79965 111.129 6.55631C111.114 6.54057 111.114 6.5209 111.114 6.50516C111.554 5.16345 111.2 4.27817 110.689 3.15287C110.315 2.33447 109.721 0.957351 108.784 0.66619C108.257 0.497001 107.608 0.733078 107.116 0.906202C105.09 1.58689 103.134 2.18102 100.97 2.09839H100.954C99.9353 2.04724 98.9123 1.77575 98.0112 1.29966C97.5863 1.05965 97.1614 0.788162 96.8033 0.449785C96.4964 0.178296 96.343 -0.128604 95.9023 0.0563231C95.5443 0.209773 95.257 0.497004 94.9501 0.737016C94.4229 1.13048 93.9468 1.57115 93.451 2.0315C93.1953 2.28725 92.6838 3.27484 92.0542 4.62048L92.0188 4.60474L91.6096 5.60807C89.5518 10.2903 86.6717 17.7778 86.6717 17.7778L85.8218 19.9065C85.5661 20.5163 85.7195 21.1813 86.1641 21.6416L81.1947 33.9334C81.0924 34.0003 80.9901 34.0671 80.9075 34.1891L78.8143 37.1676C78.6805 37.3565 78.7631 37.628 78.9835 37.7303L81.8597 38.887C82.08 38.9736 82.3357 38.8202 82.3711 38.5998L82.7135 35.759C83.7325 33.6619 87.9032 24.1637 89.3512 20.8626C90.1499 21.1026 90.7794 21.0318 91.0706 20.9806C91.106 20.9649 91.1217 20.9806 91.1572 20.9649C91.224 20.9491 91.2595 20.9491 91.2595 20.9491V20.9334C91.7001 20.7799 92.0936 20.4573 92.2824 19.997L93.577 16.8139C94.6314 17.2231 95.9771 17.5614 97.3384 17.6322C98.2591 17.6677 99.2625 17.5968 100.301 17.2899C102.276 16.7116 104.354 15.3148 106.002 12.3717C106.345 12.714 106.601 13.0878 106.77 13.4616C107.738 14.516 109.186 12.3205 109.595 11.6556C109.851 11.2306 110.055 10.786 110.224 10.3257L117.783 16.2827C118.125 16.5542 118.581 16.5896 118.955 16.3692C120.081 15.724 122.189 14.1068 121.576 11.2975C121.465 10.9631 121.225 10.7113 120.934 10.5736Z" fill="#ECF2FA"/>
<path d="M126.962 23.3728C126.706 21.3465 128.457 21.1616 129.465 21.6377C127.356 21.1773 126.962 23.3728 126.962 23.3728ZM121.957 12.7848C121.088 12.0884 119.813 12.2418 119.132 13.1114C118.436 13.977 118.589 15.2557 119.455 15.9522C119.49 15.9876 123.114 18.8795 127.116 24.3762C129.838 24.5454 130.366 22.1964 130.401 22.0272C126.077 16.0545 122.162 12.9225 121.957 12.7848Z" fill="#ECF2FA"/>
<path d="M141.839 51.2575C141.839 78.3395 113.821 100.334 79.0779 100.672C82.6505 95.7029 87.1635 91.2096 89.7682 88.8095C115.249 85.3863 134.69 67.3461 134.69 45.6074C134.69 37.8955 132.238 30.644 127.95 24.3644C127.56 23.786 127.643 23.003 128.19 22.5427C128.19 22.5427 128.19 22.5269 128.205 22.5269C128.768 22.0508 129.602 22.0863 130.114 22.6292C137.483 30.6913 141.839 40.5829 141.839 51.2575Z" fill="#ECF2FA"/>
<path d="M73.0186 64.3283C74.4508 64.4306 75.8633 64.584 77.2247 64.7886C78.3146 64.9421 79.3848 65.127 80.459 65.3159L81.9738 40.5829C81.6826 40.516 81.3954 40.4294 81.1397 40.3625L73.0186 64.3283Z" fill="#ECF2FA"/>
<path d="M82.4145 65.6739C84.5234 66.0989 86.6009 66.5749 88.5761 67.0864L83.4021 40.8898C83.1306 40.8386 82.8394 40.7717 82.5837 40.7206L82.4145 65.6739Z" fill="#ECF2FA"/>
<path d="M90.7873 67.6648C92.6759 68.1763 94.4819 68.7193 96.1659 69.2465L84.6611 41.1259C84.4408 41.0904 84.2204 41.059 84.0119 41.0078L90.7873 67.6648Z" fill="#ECF2FA"/>
<path d="M64.3703 64.1079C66.5658 64.0725 68.781 64.0922 70.9569 64.1905L80.5573 40.1894C80.0812 40.0556 79.6563 39.8982 79.2786 39.7644L64.3703 64.1079Z" fill="#ECF2FA"/>
<path d="M54.2938 64.6706C56.6742 64.4502 59.2278 64.2771 61.8679 64.1787L78.8379 39.5795C78.6333 39.493 78.4444 39.4103 78.2752 39.3434L54.2938 64.6706Z" fill="#ECF2FA"/>
<path d="M98.8887 70.1318C104.318 71.9536 107.844 73.4841 107.844 73.4841L85.4441 41.2636C85.3575 41.2478 85.2907 41.2281 85.2041 41.2124L98.8887 70.1318Z" fill="#ECF2FA"/>
<path d="M40.4715 66.5238C40.4715 66.5238 44.6933 65.7251 50.7526 65.0444L77.9881 39.2058C77.7481 39.0877 77.5631 38.9854 77.3939 38.8635L40.4715 66.5238Z" fill="#ECF2FA"/>
<path d="M122.245 45.7254C121.804 45.7254 121.446 46.0835 121.446 46.5242C121.446 46.6619 121.481 46.7799 121.528 46.8822C121.375 46.7445 121.273 46.5242 121.273 46.3038C121.273 45.8631 121.631 45.5051 122.075 45.5051C122.382 45.5051 122.654 45.6743 122.791 45.93C122.638 45.8081 122.449 45.7254 122.245 45.7254ZM122.245 45.1116C121.513 45.1116 120.915 45.7058 120.915 46.4415C120.915 47.1734 121.509 47.7518 122.245 47.7518C122.976 47.7518 123.555 47.1537 123.555 46.4415C123.571 45.7058 122.976 45.1116 122.245 45.1116Z" fill="#ECF2FA"/>
<path d="M112.971 48.7039C112.53 48.7039 112.172 49.062 112.172 49.5026C112.172 49.6404 112.207 49.7584 112.255 49.8607C112.101 49.723 111.999 49.5026 111.999 49.2823C111.999 48.8416 112.357 48.4836 112.798 48.4836C113.104 48.4836 113.376 48.6528 113.514 48.9085C113.376 48.7866 113.171 48.7039 112.971 48.7039ZM112.971 48.0901C112.239 48.0901 111.641 48.6882 111.641 49.42C111.641 50.1519 112.235 50.7302 112.971 50.7302C113.703 50.7302 114.281 50.1322 114.281 49.42C114.297 48.6882 113.699 48.0901 112.971 48.0901Z" fill="#ECF2FA"/>
<path d="M32.6573 48.1727C32.3504 48.1727 32.1143 48.4128 32.1143 48.7197C32.1143 48.8023 32.1301 48.8888 32.1812 48.9754C32.0789 48.8731 32.012 48.7354 32.012 48.5819C32.012 48.275 32.2521 48.039 32.559 48.039C32.7636 48.039 32.9485 48.157 33.035 48.3262C32.9288 48.2278 32.795 48.1727 32.6573 48.1727ZM32.6573 47.7517C32.1655 47.7517 31.7563 48.1609 31.7563 48.6528C31.7563 49.1485 32.1655 49.5538 32.6573 49.5538C33.1491 49.5538 33.5583 49.1446 33.5583 48.6528C33.5583 48.157 33.1531 47.7517 32.6573 47.7517Z" fill="#ECF2FA"/>
<path d="M58.2913 42.1174C57.406 42.1174 56.6899 42.8335 56.6899 43.7188C56.6899 43.9903 56.7568 44.2303 56.8591 44.4506C56.5522 44.1634 56.3476 43.7542 56.3476 43.2938C56.3476 42.4086 57.0637 41.6924 57.949 41.6924C58.5589 41.6924 59.1058 42.0308 59.3615 42.562C59.094 42.2669 58.7005 42.1174 58.2913 42.1174ZM58.311 40.8741C56.8473 40.8741 55.6748 42.0466 55.6748 43.5142C55.6748 44.9621 56.8473 46.1504 58.311 46.1504C59.7589 46.1504 60.9511 44.9779 60.9511 43.5142C60.9315 42.0623 59.7589 40.8741 58.311 40.8741Z" fill="#ECF2FA"/>
<path d="M42.7024 45.4185C42.0926 45.4185 41.5771 45.9103 41.5771 46.5241C41.5771 46.713 41.6283 46.8822 41.6952 47.0356C41.4748 46.831 41.3371 46.5438 41.3371 46.2212C41.3371 45.6074 41.8329 45.0959 42.4624 45.0959C42.8874 45.0959 43.2651 45.3359 43.45 45.69C43.2612 45.5365 42.9897 45.4185 42.7024 45.4185ZM42.7182 44.549C41.6952 44.549 40.8768 45.3674 40.8768 46.3864C40.8768 47.4094 41.6952 48.2278 42.7182 48.2278C43.7372 48.2278 44.5556 47.4094 44.5556 46.3864C44.5556 45.3831 43.7412 44.549 42.7182 44.549Z" fill="#ECF2FA"/>
<path d="M101.749 43.0027L104.421 42.4046L101.749 41.8065C101.631 41.6019 101.478 41.4328 101.273 41.3147L100.679 38.6746L100.101 41.2636C99.8448 41.3816 99.6245 41.5862 99.5025 41.842L96.9489 42.4203L99.5025 42.9987C99.6402 43.2545 99.8448 43.4591 100.101 43.5771L100.679 46.1661L101.273 43.526C101.478 43.3922 101.647 43.2033 101.749 43.0027Z" fill="#ECF2FA"/>
<path d="M98.09 34.3898L99.9432 33.9649L98.09 33.5399C98.0074 33.3865 97.9011 33.2684 97.7477 33.1819L97.3385 31.3444L96.9293 33.1504C96.7404 33.233 96.6066 33.3708 96.5043 33.5596L94.718 33.9688L96.5043 34.3741C96.5909 34.5433 96.7443 34.6967 96.9293 34.7833L97.3385 36.5893L97.7477 34.7518C97.8854 34.6416 98.0074 34.5236 98.09 34.3898Z" fill="#ECF2FA"/>
<path d="M92.251 41.1259L93.5612 40.8386L92.251 40.5514C92.1998 40.4491 92.1172 40.3625 92.011 40.3114L91.7238 39.0169L91.4365 40.276C91.2988 40.3271 91.1965 40.4294 91.1453 40.5632L89.8863 40.8504L91.1453 41.1377C91.2162 41.2557 91.3146 41.358 91.4365 41.4288L91.7238 42.6879L92.011 41.3934C92.1172 41.3147 92.1998 41.2321 92.251 41.1259Z" fill="#ECF2FA"/>
<path d="M105.444 53.2327C106.703 53.2327 107.793 53.9488 108.32 54.9836C107.742 54.4406 106.959 54.0983 106.109 54.0983C104.322 54.0983 102.859 55.562 102.859 57.3483C102.859 57.8913 102.996 58.387 103.217 58.8277C102.587 58.2493 102.194 57.3994 102.194 56.463C102.194 54.6767 103.657 53.2327 105.444 53.2327ZM118.448 51.5133C119.707 51.5133 120.797 52.2294 121.324 53.2681C120.746 52.7212 119.963 52.3828 119.113 52.3828C117.326 52.3828 115.859 53.8465 115.859 55.6328C115.859 55.9751 115.91 56.2978 116.012 56.6047C115.859 56.4355 115.705 56.2623 115.52 56.1443C115.316 55.7194 115.198 55.259 115.198 54.7633C115.198 52.9573 116.661 51.5133 118.448 51.5133ZM127.419 57.9267C126.84 57.3837 126.057 57.0414 125.207 57.0414C124.834 57.0414 124.476 57.124 124.133 57.246C124.267 56.9076 124.369 56.5496 124.44 56.1915C124.476 56.1915 124.511 56.1758 124.558 56.1758C125.786 56.1758 126.876 56.8919 127.419 57.9267ZM130.602 59.9019C130.602 56.9391 128.202 54.539 125.243 54.539C124.987 54.539 124.731 54.5587 124.476 54.6098C124.169 51.9382 121.906 49.8765 119.148 49.8765C116.441 49.8765 114.194 51.887 113.836 54.5075C113.36 53.996 112.68 53.693 111.932 53.693C111.456 53.693 111.011 53.8268 110.622 54.0511C109.67 52.5874 108.017 51.6195 106.128 51.6195C103.166 51.6195 100.769 54.0196 100.769 56.9784C100.769 58.5287 101.419 59.9058 102.473 60.8776L111.546 74.5976C111.546 74.5976 111.562 75.8921 111.157 78.8864C101.71 80.4366 95.2571 85.1857 95.2571 85.1857L93.9114 86.2559C93.998 86.2402 94.4229 86.1379 95.0879 85.9687C95.7686 85.7995 96.7207 85.5438 97.8618 85.2014H97.8972C98.6959 84.9614 99.6009 84.6742 100.569 84.3516C106.608 82.3252 115.394 78.6306 120.993 72.949C123.496 70.6316 126.136 67.6727 128.721 63.9939C129.89 62.9669 130.602 61.519 130.602 59.9019Z" fill="#ECF2FA"/>
<path d="M42.8716 52.8038C43.8749 52.8038 44.7444 53.3665 45.1851 54.2163C44.7248 53.7757 44.0952 53.5199 43.4145 53.5199C41.9823 53.5199 40.8098 54.6924 40.8098 56.1246C40.8098 56.5496 40.9121 56.9588 41.097 57.3168C40.5855 56.8407 40.2826 56.1758 40.2826 55.4282C40.2668 53.9645 41.4236 52.8038 42.8716 52.8038ZM54.4118 50.8995C54.4118 50.8995 53.8334 48.2633 50.1231 48.7708C52.2005 47.7675 54.3606 48.039 54.4118 50.8995ZM34.4633 53.4019C32.677 53.4019 31.2133 54.8655 31.2133 56.6558C31.2133 57.1988 31.3471 57.6945 31.5713 58.1352C30.9418 57.5568 30.5523 56.707 30.5523 55.7705C30.5523 53.9842 32.016 52.5205 33.8023 52.5205C35.0613 52.5205 36.1512 53.2366 36.6785 54.2714C36.0962 53.7403 35.3132 53.4019 34.4633 53.4019ZM49.9027 57.4349C49.9539 57.3994 50.005 57.3522 50.0404 57.3011L56.7647 51.887C56.7135 51.4464 56.6112 51.0175 56.4578 50.628C55.7102 48.5505 53.735 47.0868 51.4215 47.0868C48.4587 47.0868 46.0743 49.4673 46.0586 52.43C45.3268 51.8516 44.4257 51.4936 43.4224 51.4936C42.3994 51.4936 41.4826 51.8516 40.7508 52.4458C40.5619 51.6313 39.8301 51.0175 38.9645 51.0175C38.3507 51.0175 37.792 51.3244 37.4654 51.8005C36.6155 51.2378 35.5925 50.8995 34.5026 50.8995C31.5399 50.8995 29.1437 53.2996 29.1437 56.2623C29.1437 56.6204 29.1791 56.9588 29.246 57.3011C29.246 57.3011 29.246 57.3011 29.246 57.3168C29.2617 57.3995 29.2814 57.486 29.3129 57.5883C30.4185 62.4397 34.7072 68.3456 34.7072 68.3456L37.1939 67.6806H37.2096V67.7003L39.6452 65.7408L49.9027 57.4349Z" fill="#ECF2FA"/>
<path d="M106.758 77.4542V78.5598C104.476 79.0556 102.245 79.7362 100.101 80.6058C97.8027 81.558 95.5876 82.7147 93.4471 83.9935C89.2095 86.5982 85.3103 89.7813 81.7338 93.2713C78.1415 96.7456 74.8757 100.558 71.8461 104.524C70.3312 106.515 68.8833 108.557 67.5023 110.635C66.8413 111.638 66.192 112.645 65.5468 113.664C63.725 116.934 62.9578 119.299 62.3637 120.66C61.9545 118.96 57.8546 114.432 56.9693 113.46C56.1194 112.61 55.2145 111.792 54.2977 110.993C52.0864 109.12 49.7178 107.401 47.2862 105.748C42.3837 102.482 37.1939 99.5864 31.8822 96.9148C26.5901 94.2274 21.1407 91.7565 15.6598 89.4429C12.9173 88.2822 10.1434 87.1805 7.36953 86.1064C5.97274 85.5791 4.59563 85.0519 3.1831 84.5561L1.08988 83.8243L0.0708202 83.482C0.0550817 83.482 0.0354115 83.4663 0 83.4663V83.2459C0 83.2459 0.0196716 83.2459 0.0354101 83.2459L0 83.0925V79.2995C0.1023 79.2995 0.220335 79.3349 0.291158 79.3507L0.373781 79.3664L0.696423 79.449C0.916761 79.5198 1.08595 79.5671 1.29055 79.6182L2.39618 79.992L4.52481 80.7396C5.95701 81.2511 7.36953 81.7783 8.78205 82.3213C11.6071 83.4112 14.4164 84.5325 17.1903 85.709C22.7578 88.058 28.2702 90.5446 33.6685 93.2831C39.0629 96.0256 44.3903 98.9883 49.4817 102.376C52.0353 104.076 54.518 105.897 56.8867 107.908C58.5549 109.321 60.1524 110.835 61.6358 112.539L62.2141 111.689C62.946 110.635 63.6975 109.576 64.4608 108.542C65.9914 106.464 67.577 104.457 69.2453 102.482C72.5661 98.5516 76.1033 94.8216 79.9671 91.4024C83.8152 87.9989 87.9859 84.9181 92.5146 82.4314C94.7967 81.2038 97.126 80.114 99.5615 79.2641C101.922 78.4418 104.322 77.828 106.758 77.4542Z" fill="#ECF2FA"/>
<path d="M68.8676 68.2944C67.5928 67.7002 66.2825 67.1022 64.9172 66.5081C56.084 66.4569 46.8731 67.3265 37.2923 68.9239C40.7823 69.9272 44.4926 71.088 48.2541 72.4139C55.4545 70.5253 62.5014 69.2151 68.8676 68.2944Z" fill="#ECF2FA"/>
<path d="M66.6524 80.4641C70.9923 82.7974 75.1118 85.4178 78.8064 88.3609C82.3476 85.347 86.3137 82.5377 90.6182 80.3579C88.3203 78.8431 85.4953 77.0922 82.2099 75.1996C77.3939 76.4469 72.153 78.1506 66.6524 80.4641Z" fill="#ECF2FA"/>
<path d="M42.1083 94.6799C51.453 99.9562 58.9799 105.166 61.5295 108.144C61.5295 108.144 67.6912 98.2211 77.5985 89.4193C73.7505 86.3543 69.4106 83.6512 64.8661 81.2471C57.5123 84.4853 49.7847 88.8409 42.1083 94.6799Z" fill="#ECF2FA"/>
<path d="M48.321 74.0822C39.3147 76.4981 30.088 79.8346 21.6483 84.5011C28.0814 87.2396 34.6364 90.525 40.5777 93.8104C48.1361 87.9872 55.7614 83.5961 63.0286 80.295C58.2087 77.8949 53.2236 75.8371 48.321 74.0822Z" fill="#ECF2FA"/>
<path d="M33.7157 69.5731C22.9939 71.5483 11.8275 74.3733 0.200684 77.7768C5.75243 78.544 12.6262 80.7553 19.7597 83.6984C27.9319 79.0516 36.8477 75.6481 45.6494 73.1457C41.4787 71.7489 37.4458 70.5607 33.7157 69.5731Z" fill="#ECF2FA"/>
<path d="M64.8149 79.4962C70.2093 77.1473 75.403 75.3924 80.1835 74.0665C77.5473 72.6028 74.6515 71.088 71.5195 69.5574C65.2399 70.3719 58.189 71.5837 50.9061 73.4055C55.5725 75.1524 60.2862 77.1788 64.8149 79.4962Z" fill="#ECF2FA"/>
<path d="M77.4096 67.2753C74.6711 66.9526 71.8933 66.748 69.084 66.63C70.0047 67.0549 70.9057 67.4799 71.791 67.9048C73.7504 67.6648 75.6233 67.4445 77.4096 67.2753Z" fill="#ECF2FA"/>
<path d="M82.4341 73.4881C87.0966 72.3156 91.3381 71.5641 94.9816 71.0722C91.4758 69.9312 87.8992 69.0144 84.2401 68.3337C81.3638 68.5226 78.0627 68.8098 74.435 69.219C77.3427 70.6788 80.0143 72.107 82.4341 73.4881Z" fill="#ECF2FA"/>
<path d="M92.3061 79.5474C96.9371 77.4542 101.922 76.1243 107.167 76.1243C104.326 74.6606 101.43 73.4015 98.4873 72.2959C94.6393 72.6697 89.8587 73.37 84.4447 74.6606C87.5412 76.4666 90.1774 78.1348 92.3061 79.5474Z" fill="#ECF2FA"/>
<path d="M505.617 39.5175H504.051V44.7152H506.518C507.537 44.7152 508.32 44.4555 508.859 43.9322C509.398 43.4089 509.669 42.7715 509.669 42.02C509.669 41.2684 509.48 40.7019 509.103 40.3241C508.721 39.9425 508.28 39.7103 507.777 39.6316C507.273 39.5569 506.557 39.5175 505.617 39.5175ZM506.726 47.9888H504.051V53.6979H506.124C507.486 53.6979 508.516 53.4972 509.221 53.0959C509.921 52.6985 510.267 51.9745 510.267 50.9358C510.267 49.8931 509.992 49.1416 509.445 48.6813C508.894 48.217 507.989 47.9888 506.726 47.9888ZM498.373 36.24H505.196C507.556 36.24 509.276 36.3856 510.35 36.6768C511.42 36.9679 512.183 37.3142 512.648 37.7155C513.667 38.5968 514.178 39.9464 514.178 41.7681C514.178 43.1295 513.446 44.424 511.987 45.6477C513.848 46.588 514.78 48.3389 514.78 50.9043C514.78 52.907 514.127 54.3943 512.813 55.3662C511.499 56.338 509.543 56.8731 506.939 56.9754H498.377L498.078 54.4809C498.334 54.1425 498.884 53.812 499.726 53.4894V39.7576C498.908 39.4585 498.357 39.1201 498.078 38.7385L498.373 36.24ZM492.184 49.4603C492.184 52.0847 491.59 54.0323 490.394 55.3032C489.201 56.5741 487.277 57.2076 484.61 57.2076C481.946 57.2076 480.081 56.582 479.011 55.3308C477.937 54.0795 477.401 52.124 477.401 49.4564V39.7497C476.642 39.4703 476.091 39.132 475.753 38.7306L476.056 36.2361H483.083L483.382 38.7306C483.059 39.1123 482.509 39.4546 481.726 39.7497V49.5744C481.726 51.0184 481.962 52.0886 482.434 52.7772C482.902 53.4697 483.748 53.8159 484.972 53.8159C486.195 53.8159 487.053 53.4579 487.557 52.7418C488.056 52.0336 488.304 50.9751 488.304 49.5744V39.7497C487.486 39.4507 486.935 39.1123 486.656 38.7306L486.955 36.2361H493.533L493.836 38.7306C493.514 39.1123 492.963 39.4546 492.184 39.7497V49.4603ZM462.619 39.5175H460.845V45.2267H462.556C463.918 45.2267 464.933 45.0221 465.605 44.6089C466.274 44.1958 466.609 43.46 466.609 42.4016C466.609 41.3393 466.27 40.5917 465.59 40.1628C464.909 39.7339 463.918 39.5175 462.619 39.5175ZM471.118 42.3151C471.118 43.6764 470.693 44.8175 469.843 45.7382C468.993 46.6589 467.927 47.3592 466.644 47.8393C467.648 48.2603 468.309 48.7678 468.627 49.3698L470.815 53.5484C471.759 53.871 472.401 54.2409 472.743 54.658L472.444 56.9715H467.364L463.906 49.6138C463.587 48.8662 463.217 48.4963 462.796 48.4963H460.845V53.3044C462.304 53.6271 463.217 54.0166 463.575 54.477L463.272 56.9715H455.159L454.86 54.477C455.12 54.1386 455.674 53.8081 456.517 53.4854V39.7536C455.694 39.4546 455.139 39.1162 454.86 38.7346L455.159 36.24H462.824C465.625 36.2833 467.711 36.7318 469.072 37.5896C470.437 38.4513 471.118 40.0251 471.118 42.3151ZM446.121 39.7851C445.519 39.5254 444.618 39.3995 443.418 39.3995C442.218 39.3995 441.246 39.9189 440.503 40.9576C439.763 42.0003 439.389 43.8259 439.389 46.4307C439.389 49.0354 439.743 50.8807 440.455 51.9745C441.168 53.0605 442.222 53.6074 443.623 53.6074C445.767 53.6074 447.691 53.2887 449.395 52.6513L450.473 55.3229C448.352 56.5859 445.862 57.2155 442.997 57.2155C440.133 57.2155 438.063 56.4049 436.788 54.7839C435.517 53.1628 434.884 50.5109 434.884 46.8241C434.884 43.1334 435.671 40.4107 437.241 38.648C438.815 36.8853 441.022 36.0079 443.863 36.0079C446.149 36.0079 448.321 36.6374 450.382 37.8965C450.382 38.0145 450.382 38.2467 450.382 38.589C450.382 38.9273 450.312 39.5097 450.174 40.3359C450.032 41.1543 449.832 41.8272 449.572 42.3465H446.719C446.444 41.7996 446.243 40.9497 446.121 39.7851ZM425.236 39.5175C424.556 39.3366 423.847 39.2461 423.108 39.2461C422.368 39.2461 421.77 39.431 421.321 39.8008C420.869 40.1707 420.641 40.694 420.641 41.3668C420.641 42.0357 420.814 42.5629 421.156 42.9407C421.494 43.3223 422.167 43.6528 423.167 43.9322L425.834 44.7152C427.278 45.1362 428.427 45.7893 429.277 46.6825C430.127 47.5756 430.552 48.8819 430.552 50.5974C430.552 52.6434 429.816 54.2566 428.349 55.437C426.873 56.6174 425.047 57.2076 422.868 57.2076C421.668 57.2076 420.428 57.0541 419.153 56.7433C417.883 56.4325 416.828 55.9957 415.982 55.437C415.982 55.319 415.982 55.0868 415.982 54.7445C415.982 54.4061 416.053 53.8238 416.191 52.9975C416.332 52.1791 416.529 51.5063 416.793 50.9869H419.649C419.968 51.6086 420.157 52.4427 420.216 53.4815C420.916 53.7844 421.735 53.934 422.667 53.934C423.6 53.934 424.367 53.7136 424.969 53.269C425.571 52.8323 425.87 52.2027 425.87 51.3765C425.87 50.9948 425.838 50.6801 425.779 50.4282C425.716 50.1804 425.535 49.9089 425.225 49.6177C424.914 49.3265 424.469 49.0905 423.887 48.9173L420.79 48.0163C417.646 47.1114 416.073 45.1086 416.073 42.0082C416.073 40.1825 416.734 38.7228 418.056 37.6329C419.374 36.543 421.101 36 423.238 36C425.37 36 427.459 36.48 429.501 37.4401C429.501 37.562 429.501 37.7902 429.501 38.1326C429.501 38.4749 429.435 39.0533 429.293 39.8756C429.155 40.6979 428.951 41.3707 428.691 41.8862H425.83C425.496 41.4101 425.295 40.6192 425.236 39.5175ZM392.52 39.5175H390.745V45.2267H392.457C393.818 45.2267 394.834 45.0221 395.506 44.6089C396.179 44.1958 396.518 43.46 396.518 42.4016C396.518 41.3393 396.175 40.5917 395.491 40.1628C394.81 39.7339 393.818 39.5175 392.52 39.5175ZM401.023 42.3151C401.023 43.6764 400.598 44.8175 399.744 45.7382C398.894 46.6589 397.828 47.3592 396.545 47.8393C397.548 48.2603 398.209 48.7678 398.528 49.3698L400.724 53.5484C401.664 53.871 402.305 54.2409 402.644 54.658L402.345 56.9715H397.265L393.814 49.6138C393.492 48.8662 393.118 48.4963 392.697 48.4963H390.745V53.3044C392.209 53.6271 393.118 54.0166 393.476 54.477L393.173 56.9715H385.064L384.765 54.477C385.025 54.1386 385.579 53.8081 386.421 53.4854V39.7536C385.595 39.4546 385.044 39.1162 384.765 38.7346L385.064 36.24H392.729C395.534 36.2833 397.615 36.7318 398.977 37.5896C400.342 38.4513 401.023 40.0251 401.023 42.3151ZM371.277 40.3005H370.852C370.852 41.5203 370.6 42.9407 370.104 44.5657L368.928 48.2917H373.225L372.088 44.6286C371.627 43.224 371.364 41.9531 371.305 40.812L371.277 40.3005ZM369.231 36.0905H373.347L379.327 53.4304C380.169 53.7294 380.763 54.0796 381.102 54.477L380.799 56.9715H373.764L373.461 54.477C373.701 54.1543 374.185 53.8553 374.909 53.5759L374.098 51.0538H368.09L367.338 53.4854C368.039 53.7648 368.562 54.0953 368.904 54.477L368.601 56.9715H361.747L361.444 54.477C361.806 54.0166 362.479 53.6349 363.463 53.3359L369.231 36.0905ZM358.438 51.7463V56.9715H344.679L344.376 54.477C344.636 54.1386 345.19 53.8081 346.032 53.4854V39.7536C345.206 39.4546 344.655 39.1162 344.376 38.7346L344.679 36.24H351.71L352.009 38.7346C351.687 39.1162 351.14 39.4585 350.361 39.7536V53.694H355.106C355.365 52.6552 355.739 51.9155 356.219 51.4709L358.438 51.7463ZM327.792 40.9576C327.072 42.0003 326.714 43.8142 326.714 46.3953C326.714 48.9803 327.091 50.865 327.851 52.0493C328.61 53.2336 329.657 53.8238 330.99 53.8238C332.32 53.8238 333.355 53.2651 334.095 52.1516C334.839 51.042 335.212 49.1928 335.212 46.6077C335.212 41.8036 333.768 39.4034 330.88 39.4034C329.546 39.3995 328.516 39.9189 327.792 40.9576ZM330.711 57.2115C327.866 57.2115 325.738 56.3931 324.321 54.7524C322.913 53.1116 322.204 50.4518 322.204 46.7769C322.204 43.098 322.98 40.3832 324.53 38.6283C326.084 36.8774 328.295 36.0039 331.175 36.0039C334.048 36.0039 336.192 36.783 337.605 38.345C339.017 39.9031 339.725 42.5197 339.725 46.1867C339.725 49.8538 338.934 52.608 337.349 54.4533C335.767 56.2908 333.556 57.2115 330.711 57.2115ZM312.561 39.5175C311.88 39.3366 311.168 39.2461 310.428 39.2461C309.688 39.2461 309.094 39.431 308.642 39.8008C308.193 40.1707 307.969 40.694 307.969 41.3668C307.969 42.0357 308.138 42.5629 308.481 42.9407C308.823 43.3223 309.492 43.6528 310.495 43.9322L313.167 44.7152C314.611 45.1362 315.76 45.7893 316.609 46.6825C317.459 47.5756 317.884 48.8819 317.884 50.5974C317.884 52.6434 317.148 54.2566 315.677 55.437C314.201 56.6174 312.376 57.2076 310.196 57.2076C308.996 57.2076 307.757 57.0541 306.482 56.7433C305.211 56.4325 304.156 55.9957 303.314 55.437C303.314 55.319 303.314 55.0868 303.314 54.7445C303.314 54.4061 303.385 53.8238 303.527 52.9975C303.668 52.1791 303.865 51.5063 304.129 50.9869H306.985C307.304 51.6086 307.493 52.4427 307.552 53.4815C308.256 53.7844 309.071 53.934 309.999 53.934C310.936 53.934 311.699 53.7136 312.301 53.269C312.903 52.8323 313.202 52.2027 313.202 51.3765C313.202 50.9948 313.175 50.6801 313.112 50.4282C313.053 50.1804 312.868 49.9089 312.557 49.6177C312.246 49.3265 311.801 49.0905 311.219 48.9173L308.122 48.0163C304.979 47.1114 303.405 45.1086 303.405 42.0082C303.405 40.1825 304.066 38.7228 305.388 37.6329C306.71 36.543 308.437 36 310.57 36C312.702 36 314.788 36.48 316.834 37.4401C316.834 37.562 316.834 37.7902 316.834 38.1326C316.834 38.4749 316.763 39.0533 316.621 39.8756C316.48 40.6979 316.283 41.3707 316.019 41.8862H313.163C312.82 41.4101 312.62 40.6192 312.561 39.5175ZM289.933 51.7463V56.9715H276.173L275.87 54.477C276.13 54.1386 276.685 53.8081 277.527 53.4854V39.7536C276.705 39.4546 276.15 39.1162 275.87 38.7346L276.173 36.24H283.205L283.504 38.7346C283.189 39.1162 282.638 39.4585 281.855 39.7536V53.694H286.6C286.86 52.6552 287.234 51.9155 287.71 51.4709L289.933 51.7463ZM262.379 40.3005H261.958C261.958 41.5203 261.71 42.9407 261.21 44.5657L260.038 48.2917H264.334L263.189 44.6286C262.733 43.224 262.473 41.9531 262.41 40.812L262.379 40.3005ZM260.34 36.0905H264.456L270.437 53.4304C271.275 53.7294 271.865 54.0796 272.207 54.477L271.904 56.9715H264.873L264.574 54.477C264.814 54.1543 265.298 53.8553 266.018 53.5759L265.208 51.0538H259.199L258.444 53.4854C259.148 53.7648 259.668 54.0953 260.01 54.477L259.711 56.9715H252.857L252.558 54.477C252.92 54.0166 253.593 53.6349 254.568 53.3359L260.34 36.0905ZM244.952 39.7851C244.35 39.5254 243.449 39.3995 242.245 39.3995C241.045 39.3995 240.073 39.9189 239.33 40.9576C238.59 42.0003 238.22 43.8259 238.22 46.4307C238.22 49.0354 238.574 50.8807 239.286 51.9745C239.999 53.0605 241.057 53.6074 242.458 53.6074C244.602 53.6074 246.526 53.2887 248.23 52.6513L249.312 55.3229C247.187 56.5859 244.693 57.2155 241.828 57.2155C238.964 57.2155 236.894 56.4049 235.627 54.7839C234.352 53.1628 233.719 50.5109 233.719 46.8241C233.719 43.1334 234.506 40.4107 236.076 38.648C237.65 36.8853 239.857 36.0079 242.702 36.0079C244.984 36.0079 247.156 36.6374 249.221 37.8965C249.221 38.0145 249.221 38.2467 249.221 38.589C249.221 38.9273 249.15 39.5097 249.013 40.3359C248.871 41.1543 248.67 41.8272 248.411 42.3465H245.554C245.275 41.7996 245.074 40.9497 244.952 39.7851ZM220.078 39.5175H218.303V45.2267H220.015C221.38 45.2267 222.395 45.0221 223.064 44.6089C223.737 44.1958 224.071 43.46 224.071 42.4016C224.071 41.3393 223.733 40.5917 223.052 40.1628C222.368 39.7339 221.376 39.5175 220.078 39.5175ZM228.58 42.3151C228.58 43.6764 228.155 44.8175 227.305 45.7382C226.452 46.6589 225.381 47.3592 224.103 47.8393C225.102 48.2603 225.767 48.7678 226.086 49.3698L228.281 53.5484C229.222 53.871 229.863 54.2409 230.205 54.658L229.906 56.9715H224.827L221.376 49.6138C221.053 48.8662 220.684 48.4963 220.266 48.4963H218.311V53.3044C219.775 53.6271 220.687 54.0166 221.049 54.477L220.746 56.9715H212.633L212.334 54.477C212.594 54.1386 213.145 53.8081 213.983 53.4854V39.7536C213.161 39.4546 212.614 39.1162 212.334 38.7346L212.633 36.24H220.29C223.095 36.2833 225.181 36.7318 226.542 37.5896C227.9 38.4513 228.58 40.0251 228.58 42.3151ZM195.738 40.9576C195.018 42.0003 194.656 43.8142 194.656 46.3953C194.656 48.9803 195.038 50.865 195.801 52.0493C196.56 53.2336 197.607 53.8238 198.937 53.8238C200.271 53.8238 201.309 53.2651 202.049 52.1516C202.789 51.042 203.159 49.1928 203.159 46.6077C203.159 41.8036 201.719 39.4034 198.835 39.4034C197.493 39.3995 196.462 39.9189 195.738 40.9576ZM198.654 57.2115C195.805 57.2115 193.68 56.3931 192.268 54.7524C190.855 53.1116 190.147 50.4518 190.147 46.7769C190.147 43.098 190.922 40.3832 192.476 38.6283C194.03 36.8774 196.242 36.0039 199.114 36.0039C201.99 36.0039 204.135 36.783 205.543 38.345C206.956 39.9031 207.664 42.5197 207.664 46.1867C207.664 49.8538 206.869 52.608 205.287 54.4533C203.714 56.2908 201.498 57.2115 198.654 57.2115ZM172.091 45.6477V53.5484C172.831 53.8277 173.382 54.1976 173.74 54.658L173.441 56.9715H167.558L167.259 54.658C167.617 54.1976 168.168 53.8277 168.908 53.5484V39.6631C168.09 39.3641 167.519 38.9942 167.196 38.5536L167.495 36.24H173.688L179.669 47.8943C180.11 48.7364 180.539 49.8617 180.956 51.2624L181.164 51.9824L181.499 51.8644C181.219 50.1213 181.078 48.6616 181.078 47.4773V39.6985C180.354 39.4152 179.803 39.0336 179.421 38.5536L179.72 36.24H185.61L185.909 38.5536C185.528 39.0336 184.977 39.4152 184.253 39.6985V56.9715H179.543L173.507 45.2267C173.067 44.3847 172.634 43.2515 172.217 41.8311L172.004 41.1386L171.674 41.2566C171.953 42.9997 172.091 44.4634 172.091 45.6477Z" fill="#ECF2FA"/>
</svg>
